<?xml version="1.0" encoding="utf-8"?>
<!-- Generator: Adobe Illustrator 16.0.0, SVG Export Plug-In . SVG Version: 6.00 Build 0)  -->
<!DOCTYPE svg PUBLIC "-//W3C//DTD SVG 1.1//EN" "http://www.w3.org/Graphics/SVG/1.1/DTD/svg11.dtd">
<svg version="1.1" id="Слой_1" xmlns="http://www.w3.org/2000/svg" xmlns:xlink="http://www.w3.org/1999/xlink" x="0px" y="0px"
	 width="64.305px" height="80.602px" viewBox="0 0 64.305 80.602" enable-background="new 0 0 64.305 80.602" xml:space="preserve">
<path fill="#777777" d="M63.859,9.757L49.448,1.441v5.543h-8.204C40.024,2.994,36.366,0,31.932,0c-4.436,0-8.095,2.883-9.313,6.984
	h-8.205V1.441L0,9.757l14.413,8.314v-5.543h8.205c0.443,1.664,1.441,3.104,2.66,4.323c-0.222,0.667-0.333,1.331-0.333,1.996v16.188
	l-7.428,7.428c-0.554,0.555-0.776,1.22-0.776,1.996V63.86c0,0.777,0.333,1.44,0.776,1.996l7.539,7.539v4.436
	c0,1.552,1.22,2.771,2.772,2.771c1.553,0,2.771-1.219,2.771-2.771v-5.545c0-0.775-0.333-1.44-0.776-1.995l-7.538-7.539V45.567
	l2.771-2.771v12.75c0,1.554,1.22,2.772,2.772,2.772c1.553,0,2.771-1.219,2.771-2.772V18.737c0-0.776,0.665-1.441,1.441-1.441
	s1.443,0.666,1.443,1.441v25.61c0,1.553,1.219,2.772,2.771,2.772s2.771-1.219,2.771-2.772V33.261c0-0.776,0.665-1.442,1.441-1.442
	s1.441,0.667,1.441,1.442v11.086c0,1.553,1.219,2.772,2.771,2.772c1.552,0,2.772-1.219,2.772-2.772v-6.874
	c0-0.775,0.666-1.441,1.441-1.441c0.777,0,1.442,0.666,1.442,1.441v6.986c0,1.552,1.219,2.771,2.77,2.771
	c1.553,0,2.773-1.219,2.773-2.771v-2.773c0-0.776,0.664-1.441,1.441-1.441c0.775,0,1.441,0.665,1.441,1.441v21.731L56.1,71.288
	c-0.111,0.333-0.111,0.556-0.111,0.889v3.546v1.997c0,1.552,1.221,2.771,2.773,2.771s2.771-1.219,2.771-2.771v-5.101l2.66-7.872
	c0.111-0.332,0.111-0.554,0.111-0.887V41.686c0-3.77-3.104-6.984-6.984-6.984c-0.666,0-1.221,0.11-1.885,0.221
	c-0.998-2.549-3.549-4.434-6.432-4.434c-0.663,0-1.219,0.111-1.884,0.222c-0.999-2.55-3.548-4.435-6.43-4.435
	c-0.444,0-0.887,0-1.441,0.111v-7.761c0-0.665-0.111-1.331-0.333-1.996c1.219-1.108,2.106-2.661,2.66-4.324h8.205v5.543
	L63.859,9.757z M35.035,12.528c-0.887-0.444-1.995-0.665-3.103-0.665c-1.109,0-2.108,0.221-3.105,0.665
	c-0.665-0.776-1.109-1.663-1.109-2.771c0-2.329,1.885-4.214,4.214-4.214c2.327,0,4.212,1.885,4.212,4.214
	C36.144,10.865,35.7,11.863,35.035,12.528z"/>
</svg>
